# xmcd
#
# Track frame offsets:
#	150
#	11863
#	21275
#	31662
#	42977
#	54244
#	66814
#	76629
#	89119
#	101312
#	112054
#	125368
#	136746
#	150283
#	172539
#	183288
#	194170
#	206250
#	217074
#	230794
#
# Disc length: 3241 seconds
# Revision: 0
# Processed by: cddbd v1.5.2PL0 Copyright (c) Steve Scherf et al.
# Submitted via: dBpowerAMP V12.0
#
DISCID=040ca714
DTITLE=Various Artist - One of These Days: The Anna Records Story
DYEAR=1961
DGENRE=R&B
TTITLE0=Joe Tex - Ain't It A Mess
TTITLE1=Johnny and Jackey - Lonely And Blue
TTITLE2=Barrett Strong - Yes, No, Maybe So
TTITLE3=Paul Gayten - Hot Cross Buns
TTITLE4=The Cap-Tans - Tight Skirts And Crazy Sweaters
TTITLE5=Ty Hunter and The Voice Masters - Orphan Boy
TTITLE6=Bob Kayli - Never More
TTITLE7=Ruben Fort - So Good
TTITLE8=Johnny and Jackey - Hey Hey
TTITLE9=Ty Hunter and The Voice Masters - Everytime
TTITLE10=The Falcons - This Heart Of Mine
TTITLE11=Paul Gayten - Beatnik Beat
TTITLE12=David Ruffin - I'm In Love
TTITLE13=Joe Tex - I'll Never Break You Heart (Parts 1 and 2)
TTITLE14=The Voice Masters - Oops I'm Sorry
TTITLE15=Barrett Strong - Oh! I Apologize
TTITLE16=The Hill Sisters - Advertising For Love
TTITLE17=Wreg Tracey - Take Me Back (I Was Wrong)
TTITLE18=Larry Darnell - I'll Get Along Somehow
TTITLE19=The Voice Masters - Needed (For Lovers Only)
EXTD=
EXTT0=
EXTT1=
EXTT2=
EXTT3=
EXTT4=
EXTT5=
EXTT6=
EXTT7=
EXTT8=
EXTT9=
EXTT10=
EXTT11=
EXTT12=
EXTT13=
EXTT14=
EXTT15=
EXTT16=
EXTT17=
EXTT18=
EXTT19=
PLAYORDER=
